<?xml version="1.0" encoding="UTF-8"?>
<svg id="Layer_1" data-name="Layer 1" xmlns="http://www.w3.org/2000/svg" viewBox="0 0 271.52 93.06">
  <g>
    <path d="M81.81,80.89c-3.63,0-3.63-17.78-3.63-47.24,0-11.56-.8-23.89-10.32-23.89-4.45,0-10.39,2.46-14.53,13.53-.84-7.2-4.05-13.53-9.47-13.53-5.71,0-10.46,4.2-13.63,11.95,.16-3.5,.53-6.7,1.37-8.84,.13-.33,.09-.71-.11-1s-.54-.47-.89-.47H7.99c-.6,0-1.08,.48-1.08,1.08v.25c0,.6,.48,1.08,1.08,1.08,4.13,0,4.13,19.39,4.13,32.22,0,17.14,0,34.86-4.01,34.86-.6,0-1.08,.48-1.08,1.08v.25c0,.6,.48,1.08,1.08,1.08H81.81c.6,0,1.08-.48,1.08-1.08v-.25c0-.6-.48-1.08-1.08-1.08ZM36.37,42.51c0,16.17,0,38.31-3.21,38.31-.16,0-1.55-.26-2.24-9.15-.5-6.41-.54-15.74-.6-26.54v-2.5c-.15-14.74,2.03-18.11,2.71-18.79,.29-.29,.47-.29,.54-.29,2.6,0,2.81,9.79,2.81,18.96Zm21.19-18.96c2.5,0,2.5,12.81,2.5,18.96,0,11.25,0,21.88-.48,28.87-.64,9.24-1.99,9.51-2.14,9.51-3.51,0-3.51-23.02-3.51-38.25s2.38-19.09,3.63-19.09Z" style="fill: #f2f1e3;"/>
    <path d="M187.63,32.43c9.63,0,15.38-4.47,15.38-11.96s-5.89-11.84-15.38-11.84-15.5,4.42-15.5,11.84,5.8,11.96,15.5,11.96Z" style="fill: #f2f1e3;"/>
    <path d="M255.59,67.01c-.8,0-1.49,.65-1.63,1.54,0,.04-.01,.08-.01,.13-.06,1.28-.19,4.27-.74,4.28-.56-.33-2.04-3.28,2.35-27.55,3.26-17.35,4.3-28.43-.06-33.69-1.7-2.05-4.18-3.09-7.39-3.09-4.31,0-10.29,2.28-15.39,12.48,.1-1.07,.19-2.15,.29-3.22,.1-1.17,.2-2.32,.3-3.4,.13-1.3-.16-2.34-.84-3.1-.68-.75-1.67-1.12-2.96-1.12h-18.92c-.5,0-.93,.34-1.05,.82l-.06,.25c-.08,.32,0,.66,.2,.93,.21,.26,.52,.42,.85,.42,.62,0,1.1,.22,1.52,.68,3.01,3.34,1.61,16.78,.26,29.78l-.2,1.88c-1.89,18.11-3.67,35.22-8.16,35.22-.76,0-1.9,0-2.48-4.67-.5-4.06-.5-10.92-.5-21.29v-3.56c0-7.9,0-12.25,.41-14.29,.28-1.38,.44-1.38,1.97-1.38h.59c.6,0,1.08-.48,1.08-1.08v-.25c0-.6-.48-1.08-1.08-1.08h-35.18c-.6,0-1.08,.48-1.08,1.08v.25c0,.6,.48,1.08,1.08,1.08h.8c2.42,0,2.84,.11,3.24,1.67,.58,2.23,.58,7.03,.58,15.75,0,22.45-.17,27.75-4.56,27.78-3.72-.03-3.72-18.09-3.72-48.02,0-11.82-.67-23.35-8.74-23.35-5.19,0-9.62,4.51-12.47,12.51-.74-6.03-3.13-12.51-8.03-12.51s-8.94,4.02-11.72,11c.17-3.2,.48-6.15,1.25-7.83,.15-.33,.12-.72-.08-1.03-.2-.31-.54-.5-.91-.5h-18.67c-.6,0-1.08,.48-1.08,1.08v.25c0,.6,.48,1.08,1.08,1.08,3.98,0,3.98,19.12,3.98,33.09,0,16.83,0,34.23-3.85,34.23-.6,0-1.08,.48-1.08,1.08v.25c0,.6,.48,1.08,1.08,1.08h121.54c.6,0,1.08-.48,1.08-1.08v-.25c0-.2-.07-.42-.18-.59-1.31-2.16,1.04-25.16,2.45-38.9,1.92-18.03,5.07-19.98,6.33-19.98,.4,0,.7,.14,.96,.45,1.74,2.07,1.44,9.82-.88,23.02-2.71,15.34-4.71,29.62,.46,35.78,1.85,2.21,4.54,3.32,8.01,3.32,5.29,0,11.61-2.73,11.61-15.71,0-.96-.72-1.71-1.65-1.71Zm-125.3-25.92c0,15.57,0,39.1-3.12,39.1-.16,0-1.56-.27-2.26-9.62-.5-6.71-.55-16.49-.61-27.81v-1.55c-.2-14.76,1.79-18.39,2.66-19.27,.32-.33,.55-.33,.62-.33,2.72,0,2.72,13.65,2.72,19.48Zm17.72-19.48c2.59,0,2.59,14.15,2.59,19.48,0,11.59,0,22.54-.48,29.61-.63,9.28-1.96,9.55-2.11,9.55-.31,0-1.9-.49-2.78-10.11-.67-7.37-.76-18.26-.76-28.93,0-19.39,3.39-19.61,3.54-19.61Z" style="fill: #f2f1e3;"/>
    <path d="M107.3,39.65c-.07-.28-.25-.51-.5-.66l-13.97-8.06c-.17-.1-.36-.14-.54-.14-.37,0-.74,.19-.94,.54l-12.28,21.26c-.14,.25-.18,.54-.11,.82,.07,.28,.25,.51,.5,.66l13.97,8.06c.17,.1,.36,.14,.54,.14,.37,0,.74-.19,.94-.54l12.28-21.26c.14-.25,.18-.54,.11-.82Z" style="fill: #f2f1e3;"/>
  </g>
  <g>
    <path d="M77.1,33.65c0-13.82-1.63-22.81-9.24-22.81-6.41,0-11.56,5.59-14.7,16.4-.13,.44-.69,.56-.69-.13,0-7.29-2.7-16.27-8.61-16.27s-11.12,5.34-14.07,15.46c-.25,.88-.75,.82-.75-.06,.06-4.96,.25-10.43,1.57-13.76H7.99v.25c5.15,0,5.21,16.71,5.21,33.3,0,20.86-.06,35.94-5.09,35.94v.25H81.82v-.25c-4.71,0-4.71-14.39-4.71-48.32Zm-43.92,48.25c-3.9,.06-3.83-15.9-3.96-39.27-.13-13.76,1.76-20.17,4.34-20.17,3.2,0,3.89,6.03,3.89,20.04,0,24.44-.25,39.39-4.27,39.39Zm24.25,.06c-4.27,0-4.59-15.96-4.59-39.33,0-13.76,1.95-20.17,4.71-20.17s3.58,6.03,3.58,20.04c0,24.57-.06,39.46-3.71,39.46Z" style="fill: #cf4026;"/>
    <path d="M187.63,31.35c8.98,0,14.3-4.05,14.3-10.88s-5.32-10.76-14.3-10.76-14.42,4.05-14.42,10.76,5.31,10.88,14.42,10.88Z" style="fill: #cf4026;"/>
    <path d="M255.6,68.09c-.25,0-.51,.25-.57,.63-.14,3.14-.3,5.35-1.85,5.3-2.09-.06-2.93-5.35,1.31-28.83,3.99-21.2,5.19-35.49-6.39-35.49-6.2,0-11.83,5-16.13,15.69-.19,.44-.82,.57-.76-.13,.38-3.42,.7-7.47,1.01-10.88,.19-1.96-.76-3.04-2.72-3.04h-18.92l-.06,.25c6.39,0,4.43,16.45,2.66,33.53-2.21,21.26-3.86,36.19-9.24,36.19-4.18,0-4.05-6.34-4.05-28.99,0-18.86-.13-18.37,4.05-18.37v-.25h-35.18v.25c5.7,0,5.7-.49,5.7,18.49,0,22.58,0,28.82-5.64,28.86-4.73-.04-4.79-13.97-4.79-49.1,0-13.92-1.33-22.27-7.66-22.27-5.63,0-10.19,6.14-12.66,15.75-.13,.44-.63,.63-.63-.13,0-5.82-1.96-15.63-7.21-15.63s-9.93,6.01-12.27,15.18c-.19,.7-.7,.76-.7-.06,.13-5,.25-10.69,1.52-13.48h-18.67v.25c5,0,5.06,16.39,5.06,34.17,0,20.44-.06,35.31-4.93,35.31v.25h121.54v-.25c-1.33-2.03-.06-16.7,2.28-39.61,1.58-14.81,4.18-20.94,7.4-20.94,3.92,0,4.05,8.22,1.14,24.74-3.86,21.89-5.38,37.84,7.4,37.84,8.15,0,10.53-6.69,10.53-14.63,0-.38-.25-.63-.57-.63Zm-128.39,13.18c-3.86,.06-3.86-16.13-3.99-40.05-.19-14.81,1.77-20.69,4.37-20.69,2.91,0,3.8,5.76,3.8,20.56,0,25.37-.32,40.18-4.18,40.18Zm20.82,.06c-4.11,0-4.62-16.2-4.62-40.11,0-14.81,1.96-20.69,4.62-20.69s3.67,5.76,3.67,20.56c0,25.5-.06,40.24-3.67,40.24Z" style="fill: #cf4026;"/>
    <rect x="80.86" y="38.47" width="24.55" height="16.13" transform="translate(6.27 103.93) rotate(-60)" style="fill: #cf4026;"/>
  </g>
</svg>